<?xml version="1.0" encoding="UTF-8"?>
<svg id="Layer_1" data-name="Layer 1" xmlns="http://www.w3.org/2000/svg" viewBox="0 0 48 48">
  <path d="m13,25.5c-.57,0-1.04-.19-1.43-.58s-.58-.86-.58-1.43.19-1.04.58-1.43.86-.58,1.43-.58,1.04.19,1.43.58.58.86.58,1.43-.19,1.04-.58,1.43-.86.58-1.43.58Zm22,13.5c-.57,0-1.04-.19-1.43-.58-.38-.38-.58-.86-.58-1.43s.19-1.04.58-1.43.86-.58,1.43-.58,1.04.19,1.43.58.58.86.58,1.43-.19,1.04-.58,1.43c-.38.38-.86.58-1.43.58Zm-5.99-6l-9.43-6.26-.55.83,9.43,6.26.55-.83Zm-8.12-7.18l-3.98-.25,1.78,3.57,2.21-3.32Zm6.25,8.93l3.98.25-1.78-3.57-2.21,3.32Zm-18.15,9.25c-.8,0-1.5-.3-2.1-.9s-.9-1.3-.9-2.1V10c0-.8.3-1.5.9-2.1s1.3-.9,2.1-.9h3.25v-3h3.25v3h17v-3h3.25v3h3.25c.8,0,1.5.3,2.1.9s.9,1.3.9,2.1v31c0,.8-.3,1.5-.9,2.1s-1.3.9-2.1.9H9Zm0-3h30v-21.5H9v21.5Z"/>
</svg>